# xmcd CD database file
# Copyright (C) 1995-1998 Ti Kan
#
# Track frame offsets:
#	150
#	11645
#	21090
#	36327
#	45745
#	57115
#	69822
#	81937
#	96429
#	109267
#	121940
#	133047
#	145277
#	159202
#	170832
#	187152
#	200730
#	213962
#	225225
#	238567
#	249490
#	263477
#
# Disc length: 3691 seconds
#
# Revision: 2
# Processed by: cddbd v1.4b42PL1 Copyright (c) Steve Scherf et al.
# Submitted via: CDex 1.40Beta3
#
DISCID=310e6916
DTITLE=Ray Pennington and Buddy Emmons - Swingin' From The 40's Thru The 80's
DYEAR=1989
DGENRE=Country
TTITLE0=Steel Guitar Rag
TTITLE1=Hang Your Head In Shame
TTITLE2=San Antonio Rose
TTITLE3=Right Or Wrong
TTITLE4=It Makes No Difference Now
TTITLE5=Pan Handle Rag
TTITLE6=Heart To Heart Talk
TTITLE7=Steppin' Up
TTITLE8=Walking On New Grass
TTITLE9=There's A New Moon Over My Shoulder
TTITLE10=Oklahoma Stomp
TTITLE11=Time Changes Everything
TTITLE12=Faded Love
TTITLE13=B Bowman Hop
TTITLE14=Nothing's Changed, Nothing's New
TTITLE15=Bubbles In My Beer
TTITLE16=Maiden's Prayer
TTITLE17=Big Beaver
TTITLE18=Deep Water
TTITLE19=Before You Turn Me Down
TTITLE20=Five Fingers
TTITLE21=Cincinnati Blues
EXTD=YEAR: 1989 ID3G:   2
EXTT0=
EXTT1=
EXTT2=
EXTT3=
EXTT4=
EXTT5=
EXTT6=
EXTT7=
EXTT8=
EXTT9=
EXTT10=
EXTT11=
EXTT12=
EXTT13=
EXTT14=
EXTT15=
EXTT16=
EXTT17=
EXTT18=
EXTT19=
EXTT20=
EXTT21=
PLAYORDER=
